{
  "accessors": [
    {
      "bufferView": 2,
      "componentType": 5126,
      "count": 9503,
      "max": [
        826.272216796875,
        -0.0,
        826.2677001953125
      ],
      "min": [
        -826.272216796875,
        -9341.67578125,
        -826.2767944335938
      ],
      "type": "VEC3"
    },
    {
      "bufferView": 2,
      "byteOffset": 114036,
      "componentType": 5126,
      "count": 9503,
      "max": [
        1.0,
        1.0,
        1.0
      ],
      "min": [
        -1.0,
        -1.0,
        -1.0
      ],
      "type": "VEC3"
    },
    {
      "bufferView": 1,
      "componentType": 5126,
      "count": 9503,
      "max": [
        0.9987999796867371,
        0.9991000294685364
      ],
      "min": [
        0.0017999999690800905,
        0.004000000189989805
      ],
      "type": "VEC2"
    },
    {
      "bufferView": 0,
      "componentType": 5125,
      "count": 29532,
      "type": "SCALAR"
    },
    {
      "bufferView": 2,
      "byteOffset": 228072,
      "componentType": 5126,
      "count": 9476,
      "max": [
        826.272216796875,
        -0.0,
        826.2677001953125
      ],
      "min": [
        -826.272216796875,
        -9341.67578125,
        -826.2767944335938
      ],
      "type": "VEC3"
    },
    {
      "bufferView": 2,
      "byteOffset": 341784,
      "componentType": 5126,
      "count": 9476,
      "max": [
        1.0,
        1.0,
        1.0
      ],
      "min": [
        -1.0,
        -1.0,
        -1.0
      ],
      "type": "VEC3"
    },
    {
      "bufferView": 1,
      "byteOffset": 76024,
      "componentType": 5126,
      "count": 9476,
      "max": [
        0.996999979019165,
        0.9991000294685364
      ],
      "min": [
        0.0017999999690800905,
        0.0020000000949949026
      ],
      "type": "VEC2"
    },
    {
      "bufferView": 0,
      "byteOffset": 118128,
      "componentType": 5125,
      "count": 29718,
      "type": "SCALAR"
    },
    {
      "bufferView": 2,
      "byteOffset": 455496,
      "componentType": 5126,
      "count": 6429,
      "max": [
        826.272216796875,
        -695.6123046875,
        826.2677001953125
      ],
      "min": [
        -826.272216796875,
        -9341.67578125,
        -826.2767944335938
      ],
      "type": "VEC3"
    },
    {
      "bufferView": 2,
      "byteOffset": 532644,
      "componentType": 5126,
      "count": 6429,
      "max": [
        1.0,
        1.0,
        1.0
      ],
      "min": [
        -1.0,
        -0.9996300339698792,
        -1.0
      ],
      "type": "VEC3"
    },
    {
      "bufferView": 1,
      "byteOffset": 151832,
      "componentType": 5126,
      "count": 6429,
      "max": [
        0.995199978351593,
        0.9937000274658203
      ],
      "min": [
        0.0017999999690800905,
        0.0020000000949949026
      ],
      "type": "VEC2"
    },
    {
      "bufferView": 0,
      "byteOffset": 237000,
      "componentType": 5125,
      "count": 19758,
      "type": "SCALAR"
    },
    {
      "bufferView": 2,
      "byteOffset": 609792,
      "componentType": 5126,
      "count": 9479,
      "max": [
        826.272216796875,
        -695.6121826171875,
        826.2677001953125
      ],
      "min": [
        -826.272216796875,
        -9341.67578125,
        -826.2767944335938
      ],
      "type": "VEC3"
    },
    {
      "bufferView": 2,
      "byteOffset": 723540,
      "componentType": 5126,
      "count": 9479,
      "max": [
        1.0,
        1.0,
        1.0
      ],
      "min": [
        -1.0,
        -1.0,
        -1.0
      ],
      "type": "VEC3"
    },
    {
      "bufferView": 1,
      "byteOffset": 203264,
      "componentType": 5126,
      "count": 9479,
      "max": [
        0.9965000152587891,
        0.9937000274658203
      ],
      "min": [
        0.002099999925121665,
        0.0020000000949949026
      ],
      "type": "VEC2"
    },
    {
      "bufferView": 0,
      "byteOffset": 316032,
      "componentType": 5125,
      "count": 33408,
      "type": "SCALAR"
    },
    {
      "bufferView": 2,
      "byteOffset": 837288,
      "componentType": 5126,
      "count": 934,
      "max": [
        809.3845825195313,
        0.00019999999494757503,
        809.380126953125
      ],
      "min": [
        -809.3848266601563,
        -6479.5830078125,
        -809.3892211914063
      ],
      "type": "VEC3"
    },
    {
      "bufferView": 2,
      "byteOffset": 848496,
      "componentType": 5126,
      "count": 934,
      "max": [
        1.0,
        1.0,
        1.0
      ],
      "min": [
        -1.0,
        -1.0,
        -1.0
      ],
      "type": "VEC3"
    },
    {
      "bufferView": 1,
      "byteOffset": 279096,
      "componentType": 5126,
      "count": 934,
      "max": [
        0.9790999889373779,
        0.9937000274658203
      ],
      "min": [
        0.0,
        0.0
      ],
      "type": "VEC2"
    },
    {
      "bufferView": 0,
      "byteOffset": 449664,
      "componentType": 5125,
      "count": 3204,
      "type": "SCALAR"
    }
  ],
  "asset": {
    "extras": {
      "author": "ManySince910 (https://sketchfab.com/noears6)",
      "license": "CC-BY-4.0 (http://creativecommons.org/licenses/by/4.0/)",
      "source": "https://sketchfab.com/3d-models/clock-tower-big-ben-9a1c691fac774bcca4e2ba565c4c9d9b",
      "title": "Clock Tower (Big Ben)"
    },
    "generator": "Sketchfab-12.68.0",
    "version": "2.0"
  },
  "bufferViews": [
    {
      "buffer": 0,
      "byteLength": 462480,
      "name": "floatBufferViews",
      "target": 34963
    },
    {
      "buffer": 0,
      "byteLength": 286568,
      "byteOffset": 462480,
      "byteStride": 8,
      "name": "floatBufferViews",
      "target": 34962
    },
    {
      "buffer": 0,
      "byteLength": 859704,
      "byteOffset": 749048,
      "byteStride": 12,
      "name": "floatBufferViews",
      "target": 34962
    }
  ],
  "buffers": [
    {
      "byteLength": 1608752,
      "uri": "scene.bin"
    }
  ],
  "images": [
    {
      "uri": "textures/Standard_13_baseColor.png"
    }
  ],
  "materials": [
    {
      "doubleSided": true,
      "emissiveTexture": {
        "index": 0
      },
      "name": "Standard_13",
      "pbrMetallicRoughness": {
        "baseColorTexture": {
          "index": 0
        },
        "metallicFactor": 0.0,
        "roughnessFactor": 0.6
      }
    }
  ],
  "meshes": [
    {
      "name": "Object_0",
      "primitives": [
        {
          "attributes": {
            "NORMAL": 1,
            "POSITION": 0,
            "TEXCOORD_0": 2
          },
          "indices": 3,
          "material": 0,
          "mode": 4
        }
      ]
    },
    {
      "name": "Object_1",
      "primitives": [
        {
          "attributes": {
            "NORMAL": 5,
            "POSITION": 4,
            "TEXCOORD_0": 6
          },
          "indices": 7,
          "material": 0,
          "mode": 4
        }
      ]
    },
    {
      "name": "Object_2",
      "primitives": [
        {
          "attributes": {
            "NORMAL": 9,
            "POSITION": 8,
            "TEXCOORD_0": 10
          },
          "indices": 11,
          "material": 0,
          "mode": 4
        }
      ]
    },
    {
      "name": "Object_3",
      "primitives": [
        {
          "attributes": {
            "NORMAL": 13,
            "POSITION": 12,
            "TEXCOORD_0": 14
          },
          "indices": 15,
          "material": 0,
          "mode": 4
        }
      ]
    },
    {
      "name": "Object_4",
      "primitives": [
        {
          "attributes": {
            "NORMAL": 17,
            "POSITION": 16,
            "TEXCOORD_0": 18
          },
          "indices": 19,
          "material": 0,
          "mode": 4
        }
      ]
    }
  ],
  "nodes": [
    {
      "children": [
        1
      ],
      "matrix": [
        1.0,
        0.0,
        0.0,
        0.0,
        0.0,
        -0.9999938011169434,
        0.003520753001793997,
        0.0,
        0.0,
        -0.003520753001793997,
        -0.9999938011169434,
        0.0,
        0.0,
        -4670.761230468751,
        4687.240722656249,
        1.0
      ],
      "name": "Sketchfab_model"
    },
    {
      "children": [
        2,
        3,
        4,
        5,
        6
      ],
      "name": "10059_big_ben_v2_max2011_it1.obj.cleaner.materialmerger.gles"
    },
    {
      "mesh": 0,
      "name": "Object_2"
    },
    {
      "mesh": 1,
      "name": "Object_3"
    },
    {
      "mesh": 2,
      "name": "Object_4"
    },
    {
      "mesh": 3,
      "name": "Object_5"
    },
    {
      "mesh": 4,
      "name": "Object_6"
    }
  ],
  "samplers": [
    {
      "magFilter": 9729,
      "minFilter": 9987,
      "wrapS": 10497,
      "wrapT": 10497
    }
  ],
  "scene": 0,
  "scenes": [
    {
      "name": "Sketchfab_Scene",
      "nodes": [
        0
      ]
    }
  ],
  "textures": [
    {
      "sampler": 0,
      "source": 0
    }
  ]
}
